<svg width="803" height="444" xmlns="http://www.w3.org/2000/svg" xmlns:xlink="http://www.w3.org/1999/xlink" overflow="hidden"><defs><clipPath id="clip0"><path d="M184 141 987 141 987 585 184 585Z" fill-rule="evenodd" clip-rule="evenodd"/></clipPath></defs><g clip-path="url(#clip0)" transform="translate(-184 -141)"><rect x="709.5" y="239.5" width="125" height="11" stroke="#E57373" stroke-width="2.66667" stroke-miterlimit="8" fill="#E57373"/><rect x="709.5" y="288.5" width="233" height="10" stroke="#E57373" stroke-width="2.66667" stroke-miterlimit="8" fill="#E57373"/><path d="M298.5 214.349C298.5 202.834 307.834 193.5 319.349 193.5L688.651 193.5C700.166 193.5 709.5 202.834 709.5 214.349L709.5 529.651C709.5 541.166 700.166 550.5 688.651 550.5L319.349 550.5C307.834 550.5 298.5 541.166 298.5 529.651Z" stroke="#3F51B5" stroke-width="2.66667" stroke-miterlimit="8" fill="none" fill-rule="evenodd"/><rect x="834.5" y="239.5" width="108" height="49" stroke="#3F51B5" stroke-width="2.66667" stroke-miterlimit="8" fill="none"/><rect x="188" y="145" width="794" height="435" stroke="#3F51B5" stroke-width="8" stroke-miterlimit="8" fill="none"/><rect x="188" y="145" width="794" height="38" fill="#3F51B5"/><rect x="761" y="148" width="216" height="28" fill="#FFFFFF"/><rect x="954" y="255" width="28" height="110" fill="#3F51B5"/><rect x="710.5" y="288.5" width="232" height="37" stroke="#3F51B5" stroke-width="2.66667" stroke-miterlimit="8" fill="none"/><rect x="772" y="205" width="170" height="28" fill="#3F51B5" fill-opacity="0.301961"/><rect x="709.5" y="239.5" width="125" height="49" stroke="#3F51B5" stroke-width="2.66667" stroke-miterlimit="8" fill="none"/><rect x="710.5" y="325.5" width="232" height="68" stroke="#3F51B5" stroke-width="2.66667" stroke-miterlimit="8" fill="none"/><rect x="709.5" y="392.5" width="233" height="24" stroke="#3F51B5" stroke-width="2.66667" stroke-miterlimit="8" fill="none"/><rect x="834.5" y="239.5" width="108" height="25" stroke="#3F51B5" stroke-width="2.66667" stroke-miterlimit="8" fill="none"/><path d="M716 404.5C716 399.806 719.806 396 724.5 396L746.5 396C751.194 396 755 399.806 755 404.5L755 404.5C755 409.194 751.194 413 746.5 413L724.5 413C719.806 413 716 409.194 716 404.5Z" fill="#9FA8DA" fill-rule="evenodd"/><path d="M761 404.5C761 399.806 764.806 396 769.5 396L791.5 396C796.194 396 800 399.806 800 404.5L800 404.5C800 409.194 796.194 413 791.5 413L769.5 413C764.806 413 761 409.194 761 404.5Z" fill="#9FA8DA" fill-rule="evenodd"/><path d="M806 404.5C806 399.806 809.806 396 814.5 396L836.5 396C841.194 396 845 399.806 845 404.5L845 404.5C845 409.194 841.194 413 836.5 413L814.5 413C809.806 413 806 409.194 806 404.5Z" fill="#9FA8DA" fill-rule="evenodd"/><path d="M851 404.5C851 399.806 854.806 396 859.5 396L881.5 396C886.194 396 890 399.806 890 404.5L890 404.5C890 409.194 886.194 413 881.5 413L859.5 413C854.806 413 851 409.194 851 404.5Z" fill="#9FA8DA" fill-rule="evenodd"/><path d="M896 404.5C896 399.806 899.806 396 904.5 396L926.5 396C931.194 396 935 399.806 935 404.5L935 404.5C935 409.194 931.194 413 926.5 413L904.5 413C899.806 413 896 409.194 896 404.5Z" fill="#9FA8DA" fill-rule="evenodd"/><rect x="714" y="384" width="165" height="5" fill="#E57373"/><path d="M720 214C720 202.954 728.954 194 740 194L740 194C751.046 194 760 202.954 760 214L760 214C760 225.046 751.046 234 740 234L740 234C728.954 234 720 225.046 720 214Z" fill="#9FA8DA" fill-rule="evenodd"/><rect x="772" y="193" width="79" height="8" fill="#9FA8DA"/><rect x="945" y="205" width="28" height="28" fill="#3F51B5"/><rect x="838" y="243" width="38" height="7" fill="#9FA8DA"/><rect x="838" y="268" width="38" height="7" fill="#9FA8DA"/><rect x="714" y="330" width="38" height="8" fill="#9FA8DA"/><rect x="709.5" y="416.5" width="210" height="95" stroke="#9FA8DA" stroke-width="2.66667" stroke-miterlimit="8" fill="none"/><rect x="709.5" y="493.5" width="210" height="38" stroke="#9FA8DA" stroke-width="2.66667" stroke-miterlimit="8" fill="none"/><rect x="742.5" y="436.5" width="177" height="75" stroke="#9FA8DA" stroke-width="2.66667" stroke-miterlimit="8" fill="none"/><rect x="709.5" y="416.5" width="210" height="115" stroke="#3F51B5" stroke-width="2.66667" stroke-miterlimit="8" fill="none"/></g></svg>